<mxfile host="app.diagrams.net" modified="2024-03-18T16:54:51.989Z" agent="Mozilla/5.0 (Windows NT 10.0; Win64; x64) AppleWebKit/537.36 (KHTML, like Gecko) Chrome/122.0.0.0 Safari/537.36" etag="d8Hi2LcZvQ_dd-Kq_CF6" version="24.0.7" type="github">
  <diagram name="Page-1" id="c7558073-3199-34d8-9f00-42111426c3f3">
    <mxGraphModel dx="977" dy="526" grid="1" gridSize="10" guides="1" tooltips="1" connect="1" arrows="1" fold="1" page="1" pageScale="1" pageWidth="826" pageHeight="1169" background="none" math="0" shadow="0">
      <root>
        <mxCell id="0" />
        <mxCell id="1" parent="0" />
        <mxCell id="31sXc83vpUmox8VGN4MM-159" value="" style="edgeStyle=orthogonalEdgeStyle;rounded=0;orthogonalLoop=1;jettySize=auto;html=1;fontFamily=Courier New;" parent="1" source="31sXc83vpUmox8VGN4MM-157" target="31sXc83vpUmox8VGN4MM-158" edge="1">
          <mxGeometry relative="1" as="geometry" />
        </mxCell>
        <mxCell id="31sXc83vpUmox8VGN4MM-157" value="&lt;p style=&quot;margin: 4px 0px 0px; text-align: center;&quot;&gt;&lt;font style=&quot;font-size: 14px;&quot;&gt;&lt;span style=&quot;font-family: &amp;quot;Courier New&amp;quot;;&quot;&gt;InferenceMetadata&lt;/span&gt;&lt;span style=&quot;text-decoration-line: underline;&quot;&gt;&lt;br&gt;&lt;/span&gt;&lt;/font&gt;&lt;/p&gt;&lt;hr&gt;&lt;p style=&quot;margin: 0px; margin-left: 8px;&quot;&gt;&lt;span style=&quot;font-weight: normal;&quot;&gt;Model configuration&lt;/span&gt;&lt;/p&gt;&lt;p style=&quot;margin: 0px; margin-left: 8px;&quot;&gt;&lt;span style=&quot;font-weight: normal;&quot;&gt;and inference parameters&lt;/span&gt;&lt;/p&gt;" style="verticalAlign=middle;align=center;overflow=fill;fontSize=12;fontFamily=Helvetica;html=1;rounded=1;fontStyle=1;strokeWidth=3;fillColor=#E6FFCC" parent="1" vertex="1">
          <mxGeometry x="25" y="60" width="170" height="80" as="geometry" />
        </mxCell>
        <mxCell id="31sXc83vpUmox8VGN4MM-163" value="" style="edgeStyle=orthogonalEdgeStyle;rounded=0;orthogonalLoop=1;jettySize=auto;html=1;fontFamily=Helvetica;fontSize=14;" parent="1" source="31sXc83vpUmox8VGN4MM-158" target="31sXc83vpUmox8VGN4MM-162" edge="1">
          <mxGeometry relative="1" as="geometry" />
        </mxCell>
        <mxCell id="31sXc83vpUmox8VGN4MM-158" value="&lt;p style=&quot;margin: 4px 0px 0px; text-align: center;&quot;&gt;&lt;span style=&quot;font-family: &amp;quot;Courier New&amp;quot;;&quot;&gt;&lt;font style=&quot;font-size: 14px;&quot;&gt;ModelLoader&lt;/font&gt;&lt;/span&gt;&lt;strong style=&quot;text-decoration-line: underline;&quot;&gt;&lt;br&gt;&lt;/strong&gt;&lt;/p&gt;&lt;hr&gt;&lt;p style=&quot;margin: 0px; margin-left: 8px;&quot;&gt;&lt;span style=&quot;font-weight: normal;&quot;&gt;Loading model weights&lt;/span&gt;&lt;/p&gt;&lt;p style=&quot;margin: 0px; margin-left: 8px;&quot;&gt;&lt;span style=&quot;font-weight: normal;&quot;&gt;using selected framework&lt;/span&gt;&lt;/p&gt;&lt;p style=&quot;margin: 0px; margin-left: 8px;&quot;&gt;&lt;span style=&quot;font-weight: normal;&quot;&gt;and inference type&lt;/span&gt;&lt;/p&gt;" style="verticalAlign=middle;align=center;overflow=fill;fontSize=12;fontFamily=Helvetica;html=1;rounded=1;fontStyle=1;strokeWidth=3;fillColor=#E6FFCC" parent="1" vertex="1">
          <mxGeometry x="25" y="180" width="170" height="90" as="geometry" />
        </mxCell>
        <mxCell id="31sXc83vpUmox8VGN4MM-168" value="" style="edgeStyle=orthogonalEdgeStyle;rounded=0;orthogonalLoop=1;jettySize=auto;html=1;fontFamily=Helvetica;fontSize=14;" parent="1" source="31sXc83vpUmox8VGN4MM-162" target="31sXc83vpUmox8VGN4MM-166" edge="1">
          <mxGeometry relative="1" as="geometry" />
        </mxCell>
        <mxCell id="31sXc83vpUmox8VGN4MM-162" value="&lt;p style=&quot;margin: 4px 0px 0px; text-align: center;&quot;&gt;&lt;span style=&quot;font-family: &amp;quot;Courier New&amp;quot;;&quot;&gt;&lt;font style=&quot;font-size: 14px;&quot;&gt;PipelineSelector&lt;/font&gt;&lt;/span&gt;&lt;strong style=&quot;text-decoration-line: underline;&quot;&gt;&lt;br&gt;&lt;/strong&gt;&lt;/p&gt;&lt;hr&gt;&lt;p style=&quot;margin: 0px; margin-left: 8px;&quot;&gt;&lt;span style=&quot;font-weight: 400;&quot;&gt;Generating the pipeline&lt;/span&gt;&lt;/p&gt;&lt;p style=&quot;margin: 0px; margin-left: 8px;&quot;&gt;&lt;span style=&quot;font-weight: 400;&quot;&gt;based on the model&lt;/span&gt;&lt;/p&gt;&lt;p style=&quot;margin: 0px; margin-left: 8px;&quot;&gt;&lt;span style=&quot;font-weight: 400;&quot;&gt;and inference type&amp;nbsp;&lt;/span&gt;&lt;/p&gt;" style="verticalAlign=middle;align=center;overflow=fill;fontSize=12;fontFamily=Helvetica;html=1;rounded=1;fontStyle=1;strokeWidth=3;fillColor=#E6FFCC" parent="1" vertex="1">
          <mxGeometry x="25" y="320" width="170" height="90" as="geometry" />
        </mxCell>
        <mxCell id="31sXc83vpUmox8VGN4MM-234" style="edgeStyle=orthogonalEdgeStyle;rounded=0;orthogonalLoop=1;jettySize=auto;html=1;entryX=0.5;entryY=1;entryDx=0;entryDy=0;fontFamily=Helvetica;fontSize=14;" parent="1" target="31sXc83vpUmox8VGN4MM-230" edge="1">
          <mxGeometry relative="1" as="geometry">
            <mxPoint x="400" y="480" as="sourcePoint" />
          </mxGeometry>
        </mxCell>
        <mxCell id="31sXc83vpUmox8VGN4MM-245" value="" style="edgeStyle=orthogonalEdgeStyle;rounded=0;orthogonalLoop=1;jettySize=auto;html=1;fontFamily=Courier New;fontSize=14;" parent="1" source="31sXc83vpUmox8VGN4MM-164" target="31sXc83vpUmox8VGN4MM-166" edge="1">
          <mxGeometry relative="1" as="geometry" />
        </mxCell>
        <mxCell id="31sXc83vpUmox8VGN4MM-164" value="&lt;p style=&quot;margin: 4px 0px 0px; text-align: center;&quot;&gt;&lt;strong style=&quot;font-size: 14px;&quot;&gt;&lt;font style=&quot;&quot; face=&quot;Courier New&quot;&gt;Preprocessor&lt;/font&gt;&lt;/strong&gt;&lt;/p&gt;&lt;hr&gt;&lt;p style=&quot;margin: 0px; margin-left: 8px;&quot;&gt;&lt;span style=&quot;font-weight: 400; background-color: initial;&quot;&gt;Preparing input data for&lt;/span&gt;&lt;/p&gt;&lt;p style=&quot;margin: 0px; margin-left: 8px;&quot;&gt;&lt;span style=&quot;background-color: initial; font-weight: 400;&quot;&gt;the inference process&amp;nbsp;&lt;/span&gt;&lt;/p&gt;" style="verticalAlign=middle;align=center;overflow=fill;fontSize=12;fontFamily=Helvetica;html=1;rounded=1;fontStyle=1;strokeWidth=3;fillColor=#dae8fc;strokeColor=#6c8ebf;" parent="1" vertex="1">
          <mxGeometry x="230.5" y="450" width="170" height="80" as="geometry" />
        </mxCell>
        <mxCell id="31sXc83vpUmox8VGN4MM-169" value="" style="edgeStyle=orthogonalEdgeStyle;rounded=0;orthogonalLoop=1;jettySize=auto;html=1;fontFamily=Helvetica;fontSize=14;entryX=0.5;entryY=0;entryDx=0;entryDy=0;" parent="1" source="31sXc83vpUmox8VGN4MM-166" target="31sXc83vpUmox8VGN4MM-164" edge="1">
          <mxGeometry relative="1" as="geometry">
            <mxPoint x="315" y="440" as="targetPoint" />
          </mxGeometry>
        </mxCell>
        <mxCell id="31sXc83vpUmox8VGN4MM-231" value="" style="edgeStyle=orthogonalEdgeStyle;rounded=0;orthogonalLoop=1;jettySize=auto;html=1;fontFamily=Helvetica;fontSize=14;" parent="1" source="31sXc83vpUmox8VGN4MM-166" target="31sXc83vpUmox8VGN4MM-230" edge="1">
          <mxGeometry relative="1" as="geometry" />
        </mxCell>
        <mxCell id="31sXc83vpUmox8VGN4MM-233" value="" style="edgeStyle=orthogonalEdgeStyle;rounded=0;orthogonalLoop=1;jettySize=auto;html=1;fontFamily=Helvetica;fontSize=14;entryX=0;entryY=0.5;entryDx=0;entryDy=0;" parent="1" source="31sXc83vpUmox8VGN4MM-166" target="31sXc83vpUmox8VGN4MM-232" edge="1">
          <mxGeometry relative="1" as="geometry">
            <Array as="points">
              <mxPoint x="315" y="240" />
            </Array>
          </mxGeometry>
        </mxCell>
        <mxCell id="31sXc83vpUmox8VGN4MM-166" value="Pipeline" style="whiteSpace=wrap;align=center;verticalAlign=middle;fontStyle=1;strokeWidth=3;fillColor=#FFFFCC" parent="1" vertex="1">
          <mxGeometry x="270" y="335" width="90" height="60" as="geometry" />
        </mxCell>
        <mxCell id="31sXc83vpUmox8VGN4MM-243" value="" style="edgeStyle=orthogonalEdgeStyle;rounded=0;orthogonalLoop=1;jettySize=auto;html=1;fontFamily=Courier New;fontSize=14;" parent="1" source="31sXc83vpUmox8VGN4MM-230" target="31sXc83vpUmox8VGN4MM-232" edge="1">
          <mxGeometry relative="1" as="geometry" />
        </mxCell>
        <mxCell id="31sXc83vpUmox8VGN4MM-230" value="&lt;p style=&quot;margin: 4px 0px 0px; text-align: center;&quot;&gt;&lt;strong style=&quot;font-size: 14px;&quot;&gt;&lt;font style=&quot;&quot; face=&quot;Courier New&quot;&gt;Inferentiator&lt;/font&gt;&lt;/strong&gt;&lt;/p&gt;&lt;hr&gt;&lt;p style=&quot;margin: 0px; margin-left: 8px;&quot;&gt;&lt;span style=&quot;background-color: initial; font-weight: 400;&quot;&gt;Generating model predictions&lt;/span&gt;&lt;/p&gt;&lt;p style=&quot;margin: 0px; margin-left: 8px;&quot;&gt;&lt;span style=&quot;background-color: initial; font-weight: 400;&quot;&gt;on the processed input image&amp;nbsp;&lt;/span&gt;&lt;br&gt;&lt;/p&gt;" style="verticalAlign=middle;align=center;overflow=fill;fontSize=12;fontFamily=Helvetica;html=1;rounded=1;fontStyle=1;strokeWidth=3;fillColor=#dae8fc;strokeColor=#6c8ebf;" parent="1" vertex="1">
          <mxGeometry x="411.5" y="325" width="174" height="80" as="geometry" />
        </mxCell>
        <mxCell id="31sXc83vpUmox8VGN4MM-237" value="" style="edgeStyle=orthogonalEdgeStyle;rounded=0;orthogonalLoop=1;jettySize=auto;html=1;fontFamily=Helvetica;fontSize=14;" parent="1" source="31sXc83vpUmox8VGN4MM-232" target="31sXc83vpUmox8VGN4MM-236" edge="1">
          <mxGeometry relative="1" as="geometry" />
        </mxCell>
        <mxCell id="31sXc83vpUmox8VGN4MM-238" value="" style="edgeStyle=orthogonalEdgeStyle;rounded=0;orthogonalLoop=1;jettySize=auto;html=1;fontFamily=Helvetica;fontSize=14;" parent="1" source="31sXc83vpUmox8VGN4MM-232" target="31sXc83vpUmox8VGN4MM-236" edge="1">
          <mxGeometry relative="1" as="geometry" />
        </mxCell>
        <mxCell id="lvaeBI2465SJGcsQZ78V-2" value="" style="edgeStyle=orthogonalEdgeStyle;rounded=0;orthogonalLoop=1;jettySize=auto;html=1;" edge="1" parent="1" source="31sXc83vpUmox8VGN4MM-232" target="31sXc83vpUmox8VGN4MM-250">
          <mxGeometry relative="1" as="geometry" />
        </mxCell>
        <mxCell id="31sXc83vpUmox8VGN4MM-232" value="&lt;p style=&quot;margin: 4px 0px 0px; text-align: center;&quot;&gt;&lt;font face=&quot;Courier New&quot;&gt;&lt;span style=&quot;font-size: 14px;&quot;&gt;Postprocessor&lt;/span&gt;&lt;/font&gt;&lt;/p&gt;&lt;hr&gt;&lt;p style=&quot;margin: 0px; margin-left: 8px;&quot;&gt;&lt;span style=&quot;font-weight: normal;&quot;&gt;Processing model&#39;s prediction&lt;/span&gt;&lt;/p&gt;&lt;p style=&quot;margin: 0px; margin-left: 8px;&quot;&gt;&lt;span style=&quot;font-weight: normal;&quot;&gt;and visualizing results&lt;/span&gt;&lt;/p&gt;" style="verticalAlign=middle;align=center;overflow=fill;fontSize=12;fontFamily=Helvetica;html=1;rounded=1;fontStyle=1;strokeWidth=3;fillColor=#dae8fc;strokeColor=#6c8ebf;" parent="1" vertex="1">
          <mxGeometry x="400.5" y="200" width="196" height="80" as="geometry" />
        </mxCell>
        <mxCell id="31sXc83vpUmox8VGN4MM-236" value="&lt;p style=&quot;margin: 4px 0px 0px; text-align: center;&quot;&gt;&lt;font face=&quot;Courier New&quot;&gt;&lt;span style=&quot;font-size: 14px;&quot;&gt;TestSelector&lt;/span&gt;&lt;/font&gt;&lt;/p&gt;&lt;hr&gt;&lt;p style=&quot;margin: 0px; margin-left: 8px;&quot;&gt;&lt;span style=&quot;font-weight: 400;&quot;&gt;Local implementation tests&lt;/span&gt;&lt;/p&gt;&lt;p style=&quot;margin: 0px; margin-left: 8px;&quot;&gt;&lt;span style=&quot;font-weight: 400;&quot;&gt;simulating data streams&lt;/span&gt;&lt;/p&gt;" style="verticalAlign=middle;align=center;overflow=fill;fontSize=12;fontFamily=Helvetica;html=1;rounded=1;fontStyle=1;strokeWidth=3;fillColor=#ffe6cc;strokeColor=#d79b00;" parent="1" vertex="1">
          <mxGeometry x="400.5" y="80" width="196" height="80" as="geometry" />
        </mxCell>
        <mxCell id="31sXc83vpUmox8VGN4MM-249" value="" style="edgeStyle=orthogonalEdgeStyle;rounded=0;orthogonalLoop=1;jettySize=auto;html=1;fontFamily=Courier New;fontSize=14;" parent="1" source="31sXc83vpUmox8VGN4MM-247" target="31sXc83vpUmox8VGN4MM-164" edge="1">
          <mxGeometry relative="1" as="geometry" />
        </mxCell>
        <mxCell id="31sXc83vpUmox8VGN4MM-247" value="&lt;p style=&quot;margin: 4px 0px 0px; text-align: center;&quot;&gt;&lt;strong style=&quot;font-size: 14px;&quot;&gt;&lt;font style=&quot;&quot; face=&quot;Courier New&quot;&gt;CompressedImage&lt;/font&gt;&lt;/strong&gt;&lt;/p&gt;&lt;hr&gt;&lt;p style=&quot;margin: 0px; margin-left: 8px;&quot;&gt;&lt;span style=&quot;background-color: initial; font-weight: 400;&quot;&gt;An object representing&lt;/span&gt;&lt;/p&gt;&lt;p style=&quot;margin: 0px; margin-left: 8px;&quot;&gt;&lt;span style=&quot;background-color: initial; font-weight: 400;&quot;&gt;the input image received&lt;/span&gt;&lt;/p&gt;&lt;p style=&quot;margin: 0px; margin-left: 8px;&quot;&gt;&lt;span style=&quot;background-color: initial; font-weight: 400;&quot;&gt;as a callback&lt;/span&gt;&lt;br&gt;&lt;/p&gt;" style="verticalAlign=middle;align=center;overflow=fill;fontSize=12;fontFamily=Helvetica;html=1;rounded=1;fontStyle=1;strokeWidth=3;fillColor=#f8cecc;strokeColor=#b85450;" parent="1" vertex="1">
          <mxGeometry x="25" y="445" width="170" height="90" as="geometry" />
        </mxCell>
        <mxCell id="31sXc83vpUmox8VGN4MM-250" value="&lt;p style=&quot;margin: 4px 0px 0px; text-align: center;&quot;&gt;&lt;strong style=&quot;font-size: 14px;&quot;&gt;&lt;font style=&quot;&quot; face=&quot;Courier New&quot;&gt;TrackedDetectionsList&lt;/font&gt;&lt;/strong&gt;&lt;/p&gt;&lt;hr&gt;&lt;p style=&quot;margin: 0px; margin-left: 8px;&quot;&gt;&lt;span style=&quot;font-weight: 400;&quot;&gt;List of tracked unique&lt;/span&gt;&lt;/p&gt;&lt;p style=&quot;margin: 0px; margin-left: 8px;&quot;&gt;&lt;span style=&quot;font-weight: 400;&quot;&gt;detections with bounding&lt;/span&gt;&lt;/p&gt;&lt;p style=&quot;margin: 0px; margin-left: 8px;&quot;&gt;&lt;span style=&quot;font-weight: 400;&quot;&gt;box information to publish&lt;/span&gt;&lt;/p&gt;&lt;p style=&quot;margin: 0px; margin-left: 8px;&quot;&gt;&lt;br&gt;&lt;/p&gt;" style="verticalAlign=middle;align=center;overflow=fill;fontSize=12;fontFamily=Helvetica;html=1;rounded=1;fontStyle=1;strokeWidth=3;fillColor=#f8cecc;strokeColor=#b85450;" parent="1" vertex="1">
          <mxGeometry x="636" y="195" width="190" height="90" as="geometry" />
        </mxCell>
      </root>
    </mxGraphModel>
  </diagram>
</mxfile>
